<svg width="873" height="56" viewBox="0 0 873 56" xmlns="http://www.w3.org/2000/svg"><title>Group 2</title><g stroke="#FFF" fill="none" fill-rule="evenodd" opacity=".07"><path d="M10.31 61.792L64.936.627l55.838 68.543 41.292 37.79-10.465-83.605c-.069-.549.23-.718.663-.38l91.895 71.576 28.246 1.714-3.573-55.495c-.036-.555-.445-.77-.924-.473l-88.804 54.982 140.223-.598L10.31 61.792z"/><path d="M494.5 70.133L394.082 27.812c-.51-.215-.829.045-.712.583l13.916 64.253-100.716 2.223-37.66-54.261c-.316-.454-.143-.693.387-.534l58.493 17.54"/><path d="M391.745 28.592l-75.578 78.111-197.935-11.16 2.878-26.378 30.194-45.572c.305-.46.126-.943-.423-1.083L65.931.893c-.539-.137-.57-.045-.08.199l183.632 91.586 142.262-64.086z"/><path d="M-42.978 8.797L117.5 66.217 20.443 96.805l-75.58-81.32L-16.87 99.03zM986.69 91.792l-54.626-61.165-55.838 68.543-41.292 37.79-8.403-107.997c-.042-.548-.343-.643-.68-.2l-73.01 95.788-28.246 1.714L719.977 21c-.024-.553.255-.68.634-.273l97.285 104.552-140.223-.598-7.903-39.79-57.942-60.558L466.46 56.718l125.255 76.465-26.665-3.443-25.426-50.218-9.786 40.232L986.69 91.792z"/><path d="M502.5 100.133l108.357-75.275c.45-.313.718-.129.598.406l-21.741 97.384 100.716 2.223 29.304-103.353c.151-.534-.115-.755-.607-.487l-51.155 27.836-43.248-11.614 18.178 19.907 25.07-8.293 2.092 12.196"/><path d="M611.647 24.52l69.186 112.183 197.935-11.16-2.878-26.378-49.565-69.744c-.32-.45-.13-.81.42-.803l105.312 1.436 107.785 8.803"/></g></svg>