<svg width="19" height="13" viewBox="0 0 19 13" xmlns="http://www.w3.org/2000/svg"><title>vk icon</title><path d="M10.08 12.128c.466 0 .657-.324.651-.732-.023-1.533.547-2.359 1.577-1.283 1.14 1.19 1.376 2.015 2.76 2.015h2.45c.619 0 .862-.208.862-.534 0-.69-1.088-1.909-2.01-2.803-1.291-1.252-1.352-1.282-.24-2.789 1.38-1.871 3.184-4.269 1.588-4.269h-3.049c-.59 0-.634.348-.844.867-.762 1.877-2.21 4.31-2.76 3.937-.576-.388-.312-1.925-.268-4.208.011-.604.008-1.017-.874-1.232A5.928 5.928 0 0 0 8.537.933c-1.74 0-2.941.763-2.259.896 1.203.234 1.088 2.953.807 4.127-.488 2.045-2.325-1.619-3.09-3.443-.184-.439-.241-.78-.9-.78H.603c-.377 0-.603.128-.603.413 0 .482 2.267 5.376 4.431 7.816 2.11 2.38 4.197 2.166 5.649 2.166z" fill="#FFF" fill-rule="evenodd"/></svg>