<svg width="67" height="67" viewBox="0 0 67 67" xmlns="http://www.w3.org/2000/svg"><title>Group 6</title><g fill-rule="evenodd"><path d="M33.5.175C15.12.175.167 15.127.167 33.5c0 18.373 14.956 33.325 33.333 33.325s33.329-14.948 33.329-33.321C66.829 15.13 51.88.174 33.5.174zM64.339 33.5c0 17-13.832 30.835-30.839 30.835-17.007 0-30.839-13.832-30.839-30.835S16.497 2.661 33.5 2.661 64.339 16.497 64.339 33.5z"/><path d="M48.903 32.156L26.11 20.763a1.595 1.595 0 0 0-1.797.271c-.29.298-.455.696-.455 1.128v22.683c0 .879.667 1.571 1.515 1.571.254 0 .503-.06.741-.175L48.9 34.84c.55-.272.878-.774.878-1.34 0-.566-.324-1.072-.874-1.344zM46.014 33.5l-19.66 9.83V23.673l19.66 9.827z"/></g></svg>