<svg width="10" height="12" viewBox="0 0 10 12" xmlns="http://www.w3.org/2000/svg"><title>ruble icon</title><path d="M5.566 7.904c2.307 0 4.184-1.773 4.184-3.952C9.75 1.773 7.873 0 5.566 0H2.569c-.397 0-.718.303-.718.678 0 .057.009.113.023.167a.642.642 0 0 0-.023.167v5.536h-.384c-.396 0-.717.303-.717.678 0 .374.321.677.717.677h.384v.879h-.384c-.396 0-.717.303-.717.677 0 .375.321.678.717.678h.384v1.185c0 .375.322.678.718.678.396 0 .717-.303.717-.678v-1.185h2.117c.397 0 .718-.303.718-.678 0-.374-.321-.677-.718-.677H3.286v-.879h2.28zm-2.28-6.549h2.28c1.516 0 2.749 1.165 2.749 2.597 0 1.431-1.233 2.596-2.749 2.596h-2.28V1.355z" fill-rule="evenodd"/></svg>