<svg width="18" height="15" viewBox="0 0 18 15" xmlns="http://www.w3.org/2000/svg"><title>Shape</title><path d="M15.388 3.77h-.743V0H3.355v3.77h-.743C1.165 3.77 0 4.884 0 6.27v3.307c0 1.385 1.165 2.5 2.612 2.5h.743V15h11.29v-2.923h.743c1.447 0 2.612-1.115 2.612-2.5V6.269c0-1.384-1.165-2.5-2.612-2.5zM4.56 1.153h8.88v2.615H4.56V1.154zm0 12.692V10h8.88v3.846H4.56zm12.235-4.27c0 .75-.623 1.347-1.407 1.347h-.743V10h.382c.341 0 .602-.25.602-.577 0-.327-.26-.577-.602-.577H2.973c-.341 0-.602.25-.602.577 0 .327.26.577.602.577h.382v.923h-.743c-.784 0-1.407-.596-1.407-1.346V6.269c0-.75.623-1.346 1.407-1.346h12.776c.784 0 1.407.596 1.407 1.346v3.308z" fill-rule="evenodd"/></svg>