<svg width="520" height="162" viewBox="0 0 520 162" xmlns="http://www.w3.org/2000/svg"><title>arts_downl_cat</title><g stroke="#FFF" fill="none" fill-rule="evenodd" opacity=".2"><path d="M-2.504-1.133l112.44 80.76 55.838 68.543 41.292 37.79-2.944-84.303c-.019-.554.308-.709.727-.35l84.31 72.244 28.246 1.714-3.573-55.495c-.036-.555-.445-.77-.924-.473l-88.804 54.982 140.223-.598 7.903-39.79 57.942-60.558L542.42 85.946l-92.134 96.237 26.665-3.443 25.426-50.218 9.786 40.232"/><path d="M539.5 149.133L431.143 73.858c-.45-.313-.718-.129-.598.406l21.741 97.384-100.716 2.223-37.66-54.261c-.316-.454-.134-.71.394-.576l57.423 14.638"/><path d="M430.353 73.52l-69.186 112.183-197.935-11.16 2.878-26.378 37.98-46.648c.348-.427.187-.875-.339-.996l-93.808-21.467L2.158 87.857l2.305 3.11"/><path d="M6.022 90.797l160.479 57.42-97.058 30.588-72.298-89.953L32.13 181.03"/></g></svg>