<svg width="14" height="14" viewBox="0 0 14 14" xmlns="http://www.w3.org/2000/svg"><title>phone icon</title><path d="M1.28.799C.067 2.035 0 3.599 0 3.599c.304 1.516 1.998 4.28 4.06 6.342C6.12 12.004 8.884 13.698 10.4 14c0 0 1.564-.064 2.798-1.28l.001.001.728-.726a.251.251 0 0 0 0-.352l-3.085-3.085a.25.25 0 0 0-.35 0l-.728.726.002.003-.684.848s-1.297-.28-3.117-2.1c-1.822-1.82-2.101-3.118-2.101-3.118l.848-.684.002.002.024-.025.704-.703a.248.248 0 0 0 0-.35L2.357.072a.249.249 0 0 0-.35 0L1.28.799z" fill="#F53B49" fill-rule="evenodd"/></svg>