<svg width="123" height="24" viewBox="0 0 123 24" xmlns="http://www.w3.org/2000/svg"><title>logo footer</title><path d="M89.928 20.304l-.138.616h-1.586l-.162.72h1.505l-.145.632h-1.506l-.299 1.336h-.81l.753-3.304zm3.132 0l-.737 3.304h-.81l.737-3.304zm4.79 0l-.162.64h-.85l-.599 2.664h-.809l.599-2.664h-.898l.162-.64zm4.855 0l-.744 3.304h-.81l-.647-2.12-.47 2.12h-.752l.753-3.304h.809l.655 2.128.445-2.128zm4.855 0l-.145.64h-1.562l-.146.632h1.505l-.137.608h-1.505l-.178.8h1.796l-.138.624h-2.605l.752-3.304zm2.444 2.176c.05.185.177.342.348.432a.89.89 0 0 0 .477.128c.365 0 .567-.184.567-.376s-.113-.232-.324-.32c-.21-.088-.404-.144-.607-.216a.947.947 0 0 1-.712-.848.985.985 0 0 1 .203-.576 1.326 1.326 0 0 1 1.181-.472c.141 0 .282.013.42.04.393.065.733.304.923.648l-.68.4a.559.559 0 0 0-.153-.264.913.913 0 0 0-.599-.2c-.397 0-.47.24-.47.312 0 .184.22.264.421.328.68.232 1.247.424 1.247 1.088 0 .544-.462 1.112-1.44 1.112a2.1 2.1 0 0 1-.923-.2 1.264 1.264 0 0 1-.6-.568l.721-.448zm4.969 0c.051.185.177.34.348.432a.89.89 0 0 0 .477.128c.364 0 .566-.184.566-.376s-.113-.232-.323-.32c-.21-.088-.405-.144-.607-.216a.947.947 0 0 1-.712-.848.985.985 0 0 1 .202-.576 1.326 1.326 0 0 1 1.182-.472c.14 0 .282.013.42.04.389.068.725.306.915.648l-.68.4a.574.574 0 0 0-.154-.264.913.913 0 0 0-.599-.2c-.396 0-.469.24-.469.312 0 .184.219.264.429.328.68.232 1.246.424 1.246 1.088 0 .544-.461 1.112-1.44 1.112a2.108 2.108 0 0 1-.923-.2 1.28 1.28 0 0 1-.599-.568l.72-.448zM59.315.432S53.772 0 49.265 0C44.757 0 39.02.432 39.02.432c-2.37.152-3.795 1.376-4.119 2.656l-2.387 9.32c-.316 1.28.478 2.512 2.776 2.664 0 0 5.55.4 10.042.4 4.491 0 10.253-.4 10.253-.4 2.37-.152 3.795-1.376 4.127-2.664l2.37-9.32c.332-1.28-.46-2.512-2.759-2.656m-7.12 12.224s-3.48.248-6.216.248c-2.735 0-6.093-.248-6.093-.248-.866-.056-1.966-.408-1.675-1.6l1.683-6.584c.202-.8 1.076-1.528 2.5-1.6 0 0 3.48-.24 6.215-.24 2.736 0 6.094.24 6.094.24.574.04 2.015.352 1.683 1.6l-1.7 6.568c-.186.8-1.068 1.528-2.492 1.6m38.583.416c.122-.488-.178-.56-.518-.52 0 0-5.033.368-11.426.368-2.581 0-5.745-.216-6.06-.24-.866-.08-1.983-.344-1.676-1.6L72.02 7.2l.704-2.8.34-1.328a.634.634 0 0 0 .04-.168l.534-1.928C73.768.504 73.84 0 71.211 0c-2.582.048-2.752.4-2.914.976l-.501 1.96a.745.745 0 0 0-.04.152l-2.38 9.328c-.332 1.28.47 2.512 2.768 2.664.153 0 4.11.392 10.026.392h1.133a77.52 77.52 0 0 0 10.616-.616c.43-.072.478-.248.567-.584l.34-1.304v.08m31.364-11.72a.544.544 0 0 0-.396-.584A119.56 119.56 0 0 0 109.891 0c-4.969 0-9.549.392-9.549.392-2.355.152-3.795 1.392-4.119 2.664l-2.427 9.392c-.324 1.28.477 2.512 2.767 2.664 0 0 4.046.392 10.05.392a78.634 78.634 0 0 0 11.734-.624c.429-.072.477-.248.566-.584l.332-1.304-.04.08c.13-.488-.178-.56-.51-.52 0 0-4.969.368-11.329.376h-.138c-1.666 0-3.099-.056-4.15-.112a70.45 70.45 0 0 1-1.927-.136 2.362 2.362 0 0 1-1.618-.6.864.864 0 0 1-.121-.8l.25-.928.178-.704.057-.192a.494.494 0 0 1 .437-.296h3.569l12.308-.168h.162a.726.726 0 0 0 .315-.104c.3-.312.486-.715.526-1.144.146-.616.122-1.12-.17-1.272a.433.433 0 0 0-.194-.04h-.089l-13.757-.144h-1.772a.415.415 0 0 1-.298-.133.405.405 0 0 1-.106-.307l.194-.744.226-.912a1.44 1.44 0 0 1 .219-.48 2.107 2.107 0 0 1 1.092-.688h.219a5.13 5.13 0 0 1 .728-.136h.445a80.62 80.62 0 0 1 5.924-.216c5.081 0 11.215.336 11.215.336.68.08.696-.368.696-.368a.664.664 0 0 0 0 .12l.405-1.432zM25.7 6.992s-6.74-.52-10.074-.52c-3.197 0-6.093-.288-6.093-.288-1.044-.048-2.007-.28-1.748-1.304l.202-.696c.21-.856 1.109-1.248 2.428-1.376a60.74 60.74 0 0 1 6.328-.24h1.505c4.71.08 10.754.248 10.754.248.68.08.704-.368.704-.368a.617.617 0 0 0 0 .12l.332-1.336a.528.528 0 0 0-.389-.584S23.386.04 16.807 0C12.39 0 7.032.392 7.032.392 4.669.544 3.237 1.776 2.913 3.056l-.736 2.808c-.332 1.288.477 2.512 2.76 2.664 0 0 6.02.448 9.985.512 3.083.04 6.142.28 6.142.28.93 0 1.837.272 1.804 1.032l-.21.96a2.25 2.25 0 0 1-.073.224 1.395 1.395 0 0 1-.437.544c-.569.37-1.23.578-1.91.6 0 0-.817.12-2.039.12a81.566 81.566 0 0 1-4.216.112h-.13c-6.32 0-11.887-.632-11.887-.632a.654.654 0 0 0-.522.081.64.64 0 0 0-.287.439v-.08L.85 14.056c-.081.328-.13.504.267.584 0 0 4.102.88 12.203.88 6.044 0 10.244-.392 10.244-.392 2.371-.152 3.795-1.376 4.12-2.656l.76-2.872c.315-1.272-.656-2.536-2.735-2.648" fill="#FFF" fill-rule="evenodd"/></svg>