<?xml version="1.0" encoding="UTF-8" standalone="no"?>
<svg width="15px" height="14px" viewBox="0 0 15 14" version="1.1" xmlns="http://www.w3.org/2000/svg" xmlns:xlink="http://www.w3.org/1999/xlink">
    <!-- Generator: Sketch 39.1 (31720) - http://www.bohemiancoding.com/sketch -->
    <title>Group</title>
    <desc>Created with Sketch.</desc>
    <defs></defs>
    <g id="Desktop" stroke="none" stroke-width="1" fill="none" fill-rule="evenodd">
        <g id="Sole_dskt_main" transform="translate(-624.000000, -31.000000)" fill="#181B1E">
            <g id="header" transform="translate(109.000000, 24.000000)">
                <g id="menu" transform="translate(181.000000, 0.000000)">
                    <g id="cart" transform="translate(334.000000, 0.000000)">
                        <g id="Group" transform="translate(0.000000, 7.000000)">
                            <path d="M15,0.932430108 L3.02655,1.27896774 L2.5752,0 L0,0 L0.531,0.925956989 L1.2744,0.925956989 L3.2028,6.69952688 C2.74995,7.08716129 2.46135,7.66251613 2.46135,8.30531183 C2.46135,9.47017204 3.40575,10.4178065 4.56645,10.4178065 L15,10.4178065 L15,8.81909677 L4.5663,8.81909677 C4.284,8.81909677 4.0542,8.58862366 4.0542,8.30516129 C4.0542,8.08763441 4.1898,7.90172043 4.38045,7.82675269 L4.37955,7.82419355 L15,5.62167742 L15,0.932430108 Z" id="Shape"></path>
                            <ellipse id="Oval" cx="5.7213" cy="12.376" rx="1.5531" ry="1.55866667"></ellipse>
                            <ellipse id="Oval" cx="13.4469" cy="12.376" rx="1.5531" ry="1.55866667"></ellipse>
                        </g>
                    </g>
                </g>
            </g>
        </g>
    </g>
</svg>