<?xml version="1.0" encoding="UTF-8" standalone="no"?>
<svg width="14px" height="14px" viewBox="0 0 14 14" version="1.1" xmlns="http://www.w3.org/2000/svg" xmlns:xlink="http://www.w3.org/1999/xlink">
    <!-- Generator: Sketch 39.1 (31720) - http://www.bohemiancoding.com/sketch -->
    <title>phone icon</title>
    <desc>Created with Sketch.</desc>
    <defs></defs>
    <g id="Desktop" stroke="none" stroke-width="1" fill="none" fill-rule="evenodd">
        <g id="Sole_dskt_main" transform="translate(-1358.000000, -31.000000)" fill="#F53B49">
            <g id="header" transform="translate(109.000000, 24.000000)">
                <g id="phone" transform="translate(1249.000000, 4.000000)">
                    <path d="M1.28085371,3.79860223 C0.0664755535,5.03544611 0,6.59855082 0,6.59855082 C0.303594538,8.11487549 1.99786451,10.8786681 4.05963464,12.9411027 C6.12123344,15.0035373 8.88373815,16.6980716 10.4010255,17 C10.4010255,17 11.9649143,16.935913 13.1993379,15.7199745 L13.2000233,15.7213454 L13.9281704,14.9946268 C14.0239432,14.8972969 14.0239432,14.738793 13.9281704,14.6430053 L10.8425397,11.5575785 C10.7455676,11.4619621 10.5877739,11.4619621 10.4921724,11.5575785 L9.76471056,12.2844685 L9.76693784,12.2873815 L9.08299348,13.1354198 C9.08299348,13.1354198 7.7862062,12.8555963 5.96583827,11.0340875 C4.14444237,9.21412092 3.86466253,7.91747398 3.86466253,7.91747398 L4.71273982,7.23256611 L4.7149671,7.23547915 L4.73895312,7.21011854 L4.73963844,7.21011854 L4.73963844,7.21011854 L5.44260028,6.50721835 C5.53888704,6.40988844 5.53888704,6.25275546 5.44260028,6.1571391 L2.35731222,3.07171227 C2.26102546,2.97609591 2.103917,2.97609591 2.00763025,3.07171227 L1.27965441,3.79860223 L1.28085371,3.79860223 L1.28085371,3.79860223 Z" id="phone-icon"></path>
                </g>
            </g>
        </g>
    </g>
</svg>