<svg width="407" height="36" viewBox="0 0 407 36" xmlns="http://www.w3.org/2000/svg"><title>Group 9</title><g stroke="#FFF" fill="none" fill-rule="evenodd" opacity=".07"><path d="M520.69 71.792l-54.626-61.165-55.838 68.543-41.292 37.79L360.53 8.964c-.042-.548-.343-.643-.68-.2l-73.01 95.788-28.246 1.714L253.977 1c-.024-.553.255-.68.634-.273l97.285 104.552-140.223-.598-7.903-39.79-57.942-60.558L.46 36.718l125.255 76.465-26.665-3.443-25.426-50.218-9.786 40.232L520.69 71.792z"/><path d="M36.5 80.133L144.857 4.858c.45-.313.718-.129.598.406l-21.741 97.384 100.716 2.223L253.734 1.518c.151-.534-.115-.755-.607-.487l-51.155 27.836-43.248-11.614 18.178 19.907 25.07-8.293 2.092 12.196"/><path d="M145.647 4.52l69.186 112.183 197.935-11.16-2.878-26.378L360.325 9.42c-.32-.45-.13-.81.42-.803l105.312 1.436 107.785 8.803"/></g></svg>