<svg width="8" height="11" viewBox="0 0 8 11" xmlns="http://www.w3.org/2000/svg"><title>Group</title><path d="M3.348 6.691V.988c0-.298.249-.54.555-.54.307 0 .555.242.555.54v5.703l1.996-1.944a.565.565 0 0 1 .782.002.53.53 0 0 1 .002.763L4.296 8.379a.56.56 0 0 1-.393.158.55.55 0 0 1-.513-.334.528.528 0 0 1-.015-.371.528.528 0 0 1-.027-.166v-.975L1.353 4.747a.565.565 0 0 0-.783.002.53.53 0 0 0-.002.762L3.511 8.38c.052.05.113.09.18.117zm3.92 3.564H.538a.548.548 0 0 1-.554-.54c0-.3.248-.541.555-.541h6.729c.306 0 .554.242.554.54a.547.547 0 0 1-.554.541z" fill-rule="evenodd"/></svg>