<svg width="18" height="21" viewBox="0 0 18 21" xmlns="http://www.w3.org/2000/svg" xmlns:xlink="http://www.w3.org/1999/xlink"><title>Group 21</title><defs><path d="M15.879 6.67a7.88 7.88 0 0 1 1.928 5.189c0 4.756-3.986 8.647-8.871 8.647C3.92 20.506 0 16.615 0 11.859c0-4.385 3.536-8.091 8.036-8.524v-1.79H7.2c-.45 0-.836-.371-.836-.804C6.364.31 6.75 0 7.2 0h3.214c.386 0 .772.309.772.741a.78.78 0 0 1-.772.803h-.9v1.73c1.736.185 3.279.74 4.629 1.667l.836-.803a1.323 1.323 0 0 1 1.735 0 1.094 1.094 0 0 1 0 1.668l-.835.865z" id="a"/><mask id="b" x="0" y="0" width="17.807" height="20.506" fill="#fff"><use xlink:href="#a"/></mask></defs><g fill="none" fill-rule="evenodd"><use stroke="#FDFEFE" mask="url(#b)" stroke-width="3.802" xlink:href="#a"/><path d="M11.379 8.956c.321-.37.9-.37 1.285 0 .322.309.322.803 0 1.173l-2.7 2.595c-.128.185-.45.247-.643.247-.128 0-.257 0-.385-.062-.322-.124-.579-.433-.579-.803V7.72c0-.495.386-.927.9-.927s.9.432.9.927v2.347l1.222-1.112z" fill="#FDFEFE"/></g></svg>