<svg width="18" height="15" viewBox="0 0 18 15" xmlns="http://www.w3.org/2000/svg"><title>Shape</title><path d="M16.27 3.698h-4.894v-2.33A1.37 1.37 0 0 0 10.007 0H1.37A1.37 1.37 0 0 0 0 1.369v8.922a.85.85 0 0 0 .854.854.85.85 0 0 0 .603-.25l1.966-1.967h2.84v2.33a1.37 1.37 0 0 0 1.369 1.368h6.584l1.967 1.967a.85.85 0 0 0 .93.184.85.85 0 0 0 .526-.788V5.067a1.37 1.37 0 0 0-1.368-1.37zM6.264 5.067V7.73H3.281a.848.848 0 0 0-.603.25L1.197 9.46V1.37c0-.095.077-.172.172-.172h8.638c.095 0 .172.077.172.172v2.329H7.632a1.37 1.37 0 0 0-1.369 1.369zm3.916-.172v2.664a.172.172 0 0 1-.172.172H7.46V5.067c0-.095.077-.172.172-.172h2.547zm6.264 8.265l-1.481-1.481a.848.848 0 0 0-.604-.25H7.632a.172.172 0 0 1-.172-.172V8.928h2.548a1.37 1.37 0 0 0 1.368-1.369V4.895h4.895c.094 0 .172.077.172.172v8.093z" fill="#FBFCFD" fill-rule="evenodd"/></svg>