<svg width="63" height="63" viewBox="0 0 63 63" xmlns="http://www.w3.org/2000/svg"><title>Group</title><path d="M16.655 20.739a4.11 4.11 0 0 1-4.105-4.105 4.11 4.11 0 0 1 4.105-4.105 4.11 4.11 0 0 1 4.104 4.105 4.11 4.11 0 0 1-4.104 4.105zm7.713-4.105c0-4.253-3.46-7.713-7.713-7.713s-7.713 3.46-7.713 7.713 3.46 7.713 7.713 7.713c4.252 0 7.713-3.46 7.713-7.713zm35.024 40.463a2.297 2.297 0 0 1-2.294 2.295H14.78a2.297 2.297 0 0 1-2.295-2.295v-2.975h35.733a5.903 5.903 0 0 0 5.903-5.903V12.486h2.976a2.297 2.297 0 0 1 2.294 2.295v42.316zm-53.49-6.583a2.291 2.291 0 0 1-2.201-1.684l18.076-14.76a4.062 4.062 0 0 1 3.048-.875 4.068 4.068 0 0 1 2.76 1.562l1.474 1.903a7.738 7.738 0 0 0 5.38 2.956 7.76 7.76 0 0 0 5.842-1.92l10.233-9.206v19.73a2.297 2.297 0 0 1-2.295 2.295H5.903zM3.609 5.903a2.297 2.297 0 0 1 2.295-2.295H48.22a2.297 2.297 0 0 1 2.295 2.295v17.735l-12.638 11.37a4.046 4.046 0 0 1-3.103 1.016 4.06 4.06 0 0 1-2.86-1.572l-1.475-1.904a7.648 7.648 0 0 0-5.19-2.936 7.663 7.663 0 0 0-5.742 1.655L3.608 44.247V5.903zm53.49 2.975h-2.976V5.903A5.903 5.903 0 0 0 48.22 0H5.903A5.903 5.903 0 0 0 0 5.903v42.316a5.902 5.902 0 0 0 5.903 5.903h2.975v2.975A5.903 5.903 0 0 0 14.78 63h42.317A5.903 5.903 0 0 0 63 57.097V14.781a5.903 5.903 0 0 0-5.902-5.903z" fill="#DDE2EB" fill-rule="evenodd"/></svg>