<?xml version="1.0" encoding="UTF-8" standalone="no"?>
<svg width="407px" height="36px" viewBox="0 0 407 36" version="1.1" xmlns="http://www.w3.org/2000/svg" xmlns:xlink="http://www.w3.org/1999/xlink">
    <!-- Generator: Sketch 39.1 (31720) - http://www.bohemiancoding.com/sketch -->
    <title>Group 9</title>
    <desc>Created with Sketch.</desc>
    <defs></defs>
    <g id="Desktop" stroke="none" stroke-width="1" fill="none" fill-rule="evenodd" opacity="0.0700000003">
        <g id="UI" transform="translate(-796.000000, -194.000000)" stroke="#FFFFFF">
            <g id="Group-28" transform="translate(330.000000, -1.000000)">
                <g id="Rectangle-18-+-Group-9-+-Group-9-Mask" transform="translate(0.000000, 81.000000)">
                    <g id="Group-9" transform="translate(759.500000, 172.500000) scale(-1, 1) translate(-759.500000, -172.500000) translate(466.000000, 114.000000)">
                        <path d="M66.3097397,71.7921667 L120.935815,10.6271077 L176.773526,79.1702547 L218.066195,116.960876 L226.468687,8.9631182 C226.511328,8.41504651 226.812449,8.32046094 227.149264,8.76235761 L300.159422,104.550707 L328.40486,106.265046 L333.023151,0.999763342 C333.047402,0.44701528 332.7684,0.319893602 332.389184,0.727434018 L235.104007,105.279032 L375.327291,104.68134 L383.229715,64.8900596 L441.171875,4.33344279 L586.540608,36.7184768 L461.285834,113.183246 L487.951145,109.740251 L513.377247,59.5218789 L523.162633,99.7542704 L66.3097397,71.7921667 Z" id="Path-3"></path>
                        <path d="M550.5,80.1328125 L442.143479,4.85766586 C441.692821,4.5445943 441.425393,4.7293202 441.544826,5.26428008 L463.286493,102.64847 L362.569959,104.871027 L333.266031,1.51780417 C333.114748,0.984237877 333.381038,0.763335841 333.87345,1.03128532 L385.027675,28.8672336 L428.275877,17.2527653 L410.098406,37.1596018 L385.027675,28.8672336 L382.93604,41.0633623" id="Path-4"></path>
                        <path d="M441.35314,4.51991396 L372.167037,116.703189 L174.232438,105.543878 L177.109951,79.1648862 L226.675031,9.42118973 C226.995632,8.97006735 226.804646,8.6105105 226.254255,8.61801786 L120.942973,10.0544683 L13.1579218,18.8570096" id="Path-5"></path>
                    </g>
                </g>
            </g>
        </g>
    </g>
</svg>