<?xml version="1.0" encoding="UTF-8" standalone="no"?>
<svg width="873px" height="56px" viewBox="0 0 873 56" version="1.1" xmlns="http://www.w3.org/2000/svg" xmlns:xlink="http://www.w3.org/1999/xlink">
    <!-- Generator: Sketch 39.1 (31720) - http://www.bohemiancoding.com/sketch -->
    <title>Group 2</title>
    <desc>Created with Sketch.</desc>
    <defs></defs>
    <g id="Desktop" stroke="none" stroke-width="1" fill="none" fill-rule="evenodd" opacity="0.0700000003">
        <g id="UI" transform="translate(-330.000000, -174.000000)" stroke="#FFFFFF">
            <g id="Group-28" transform="translate(330.000000, -1.000000)">
                <g id="Rectangle-18-+-Group-9-+-Group-9-Mask" transform="translate(0.000000, 81.000000)">
                    <g id="Group-2" transform="translate(-56.000000, 94.000000)">
                        <g id="Group-9">
                            <path d="M66.3097397,61.7921667 L120.935815,0.627107728 L176.773526,69.1702547 L218.066195,106.960876 L207.601104,23.355331 C207.532378,22.806284 207.830935,22.63713 208.263935,22.9743884 L300.159422,94.5507067 L328.40486,96.2650459 L324.8315,40.7698609 C324.795773,40.2150138 324.386539,40.0006624 323.908139,40.296859 L235.104007,95.2790325 L375.327291,94.6813401 L66.3097397,61.7921667 Z" id="Path-3"></path>
                            <path d="M550.5,70.1328125 L450.082076,27.8116465 C449.57247,27.5968733 449.253302,27.8565277 449.37002,28.3954221 L463.286493,92.6484702 L362.569959,94.8710269 L324.909225,40.6098853 C324.594365,40.1562384 324.766835,39.9167428 325.297028,40.075731 L383.789747,57.6158544" id="Path-4"></path>
                            <path d="M447.745319,28.592376 L372.167037,106.703189 L174.232438,95.5438782 L177.109951,69.1648862 L207.303722,23.5934256 C207.609303,23.1322126 207.430438,22.6497753 206.881078,22.5099838 L121.931266,0.893442433 C121.392266,0.756286998 121.361677,0.847770283 121.850534,1.09158642 L305.482575,92.6776314 L447.745319,28.592376 Z" id="Path-5"></path>
                            <polygon id="Path-6" points="13.0215959 8.79706112 173.501019 66.216974 76.4431366 96.8051519 0.86389466 15.4843289 39.1292687 99.0306076"></polygon>
                        </g>
                        <g id="Group-9" transform="translate(815.500000, 78.500000) scale(-1, 1) translate(-815.500000, -78.500000) translate(522.000000, 20.000000)">
                            <path d="M66.3097397,71.7921667 L120.935815,10.6271077 L176.773526,79.1702547 L218.066195,116.960876 L226.468687,8.9631182 C226.511328,8.41504651 226.812449,8.32046094 227.149264,8.76235761 L300.159422,104.550707 L328.40486,106.265046 L333.023151,0.999763342 C333.047402,0.44701528 332.7684,0.319893602 332.389184,0.727434018 L235.104007,105.279032 L375.327291,104.68134 L383.229715,64.8900596 L441.171875,4.33344279 L586.540608,36.7184768 L461.285834,113.183246 L487.951145,109.740251 L513.377247,59.5218789 L523.162633,99.7542704 L66.3097397,71.7921667 Z" id="Path-3"></path>
                            <path d="M550.5,80.1328125 L442.143479,4.85766586 C441.692821,4.5445943 441.425393,4.7293202 441.544826,5.26428008 L463.286493,102.64847 L362.569959,104.871027 L333.266031,1.51780417 C333.114748,0.984237877 333.381038,0.763335841 333.87345,1.03128532 L385.027675,28.8672336 L428.275877,17.2527653 L410.098406,37.1596018 L385.027675,28.8672336 L382.93604,41.0633623" id="Path-4"></path>
                            <path d="M441.35314,4.51991396 L372.167037,116.703189 L174.232438,105.543878 L177.109951,79.1648862 L226.675031,9.42118973 C226.995632,8.97006735 226.804646,8.6105105 226.254255,8.61801786 L120.942973,10.0544683 L13.1579218,18.8570096" id="Path-5"></path>
                        </g>
                    </g>
                </g>
            </g>
        </g>
    </g>
</svg>