<?xml version="1.0" encoding="UTF-8" standalone="no"?>
<svg width="18px" height="21px" viewBox="0 0 18 21" version="1.1" xmlns="http://www.w3.org/2000/svg" xmlns:xlink="http://www.w3.org/1999/xlink">
    <!-- Generator: Sketch 39.1 (31720) - http://www.bohemiancoding.com/sketch -->
    <title>Group 21</title>
    <desc>Created with Sketch.</desc>
    <defs>
        <path d="M15.8785714,6.67058824 C17.1,8.09117647 17.8071429,9.88235294 17.8071429,11.8588235 C17.8071429,16.6147059 13.8214286,20.5058824 8.93571429,20.5058824 C3.92142857,20.5058824 0,16.6147059 0,11.8588235 C0,7.47352941 3.53571429,3.76764706 8.03571429,3.33529412 L8.03571429,1.54411765 L7.2,1.54411765 C6.75,1.54411765 6.36428571,1.17352941 6.36428571,0.741176471 C6.36428571,0.308823529 6.75,0 7.2,0 L10.4142857,0 C10.8,0 11.1857143,0.308823529 11.1857143,0.741176471 C11.1857143,1.23529412 10.8,1.54411765 10.4142857,1.54411765 L9.51428571,1.54411765 L9.51428571,3.27352941 C11.25,3.45882353 12.7928571,4.01470588 14.1428571,4.94117647 L14.9785714,4.13823529 C15.4928571,3.70588235 16.2,3.70588235 16.7142857,4.13823529 C17.2285714,4.57058824 17.2285714,5.37352941 16.7142857,5.80588235 L15.8785714,6.67058824 Z" id="path-1"></path>
        <mask id="mask-2" maskContentUnits="userSpaceOnUse" maskUnits="objectBoundingBox" x="0" y="0" width="17.8071429" height="20.5058824" fill="white">
            <use xlink:href="#path-1"></use>
        </mask>
    </defs>
    <g id="Desktop" stroke="none" stroke-width="1" fill="none" fill-rule="evenodd">
        <g id="Item" transform="translate(-992.000000, -192.000000)">
            <g id="Group-21" transform="translate(992.000000, 192.000000)">
                <use id="Path" stroke="#FDFEFE" mask="url(#mask-2)" stroke-width="3.80159953" xlink:href="#path-1"></use>
                <path d="M11.3785714,8.95588235 C11.7,8.58529412 12.2785714,8.58529412 12.6642857,8.95588235 C12.9857143,9.26470588 12.9857143,9.75882353 12.6642857,10.1294118 L9.96428571,12.7235294 C9.83571429,12.9088235 9.51428571,12.9705882 9.32142857,12.9705882 C9.19285714,12.9705882 9.06428571,12.9705882 8.93571429,12.9088235 C8.61428571,12.7852941 8.35714286,12.4764706 8.35714286,12.1058824 L8.35714286,7.72058824 C8.35714286,7.22647059 8.74285714,6.79411765 9.25714286,6.79411765 C9.77142857,6.79411765 10.1571429,7.22647059 10.1571429,7.72058824 L10.1571429,10.0676471 L11.3785714,8.95588235 Z" id="Path" fill="#FDFEFE"></path>
            </g>
        </g>
    </g>
</svg>