<?xml version="1.0" encoding="UTF-8" standalone="no"?>
<svg width="8px" height="11px" viewBox="0 0 8 11" version="1.1" xmlns="http://www.w3.org/2000/svg" xmlns:xlink="http://www.w3.org/1999/xlink">
    <!-- Generator: Sketch 39.1 (31720) - http://www.bohemiancoding.com/sketch -->
    <title>Group</title>
    <desc>Created with Sketch.</desc>
    <defs></defs>
    <g id="Desktop" stroke="none" stroke-width="1" fill="none" fill-rule="evenodd">
        <g id="instructions" transform="translate(-942.000000, -386.000000)" fill="#000000">
            <g id="Group-3" transform="translate(933.000000, 379.000000)">
                <g id="Group" transform="translate(8.870968, 7.258065)">
                    <path d="M3.47740143,6.43326316 L3.47740143,0.730380306 C3.47740143,0.431775225 3.72581921,0.18970798 4.03225806,0.18970798 C4.33869692,0.18970798 4.5871147,0.431775225 4.5871147,0.730380306 L4.5871147,6.43331444 L6.58255376,4.48886587 C6.79952637,4.27938209 7.14944668,4.28016875 7.36542504,4.49062585 C7.58140339,4.70108295 7.58221068,5.04205793 7.36723118,5.25348387 L4.42459677,8.1209236 C4.32510814,8.21809074 4.19151141,8.27444572 4.05120015,8.27893569 C4.04490258,8.27905827 4.03858912,8.2791639 4.03225806,8.27916469 L4.03225806,8.27922581 L4.03225806,8.27922581 C3.95866104,8.27931739 3.88656294,8.26511488 3.81987081,8.23819531 C3.68560723,8.18324993 3.5768726,8.07993026 3.51971294,7.94547042 C3.46838837,7.82473675 3.46468557,7.69310274 3.50388274,7.57371127 C3.4866872,7.52154706 3.47740143,7.46592868 3.47740143,7.40819694 L3.47740143,6.43326316 L1.481931,4.48880475 C1.2649584,4.27932097 0.915038084,4.28010763 0.699059732,4.49056473 C0.48308138,4.70102183 0.482274085,5.04199681 0.697253584,5.25342275 L3.63991935,8.12086248 C3.69189251,8.17163912 3.75317868,8.21127574 3.81987081,8.23819531 Z M7.39664875,9.99704924 L0.667867384,9.99704924 C0.361428528,9.99704924 0.113010753,9.75498199 0.113010753,9.45637691 C0.113010753,9.15777183 0.361428528,8.91570458 0.667867384,8.91570458 L7.39664875,8.91570458 C7.7030876,8.91570458 7.95150538,9.15777183 7.95150538,9.45637691 C7.95150538,9.75498199 7.7030876,9.99704924 7.39664875,9.99704924 Z" id="Combined-Shape"></path>
                </g>
            </g>
        </g>
    </g>
</svg>