<?xml version="1.0" encoding="UTF-8" standalone="no"?>
<svg width="18px" height="15px" viewBox="0 0 18 15" version="1.1" xmlns="http://www.w3.org/2000/svg" xmlns:xlink="http://www.w3.org/1999/xlink">
    <!-- Generator: Sketch 39.1 (31720) - http://www.bohemiancoding.com/sketch -->
    <title>Shape</title>
    <desc>Created with Sketch.</desc>
    <defs></defs>
    <g id="Desktop" stroke="none" stroke-width="1" fill="none" fill-rule="evenodd">
        <g id="Comparison" transform="translate(-356.000000, -469.000000)" fill="#000000">
            <path d="M371.388393,472.769231 L370.645089,472.769231 L370.645089,469 L359.354911,469 L359.354911,472.769231 L358.611607,472.769231 C357.165179,472.769231 356,473.884615 356,475.269231 L356,478.576923 C356,479.961538 357.165179,481.076923 358.611607,481.076923 L359.354911,481.076923 L359.354911,484 L370.645089,484 L370.645089,481.076923 L371.388393,481.076923 C372.834821,481.076923 374,479.961538 374,478.576923 L374,475.269231 C374,473.884615 372.834821,472.769231 371.388393,472.769231 Z M360.560268,470.153846 L369.439732,470.153846 L369.439732,472.769231 L360.560268,472.769231 L360.560268,470.153846 Z M360.560268,482.846154 L360.560268,479 L369.439732,479 L369.439732,482.846154 L360.560268,482.846154 Z M372.794643,478.576923 C372.794643,479.326923 372.171875,479.923077 371.388393,479.923077 L370.645089,479.923077 L370.645089,479 L371.026786,479 C371.368304,479 371.629464,478.75 371.629464,478.423077 C371.629464,478.096154 371.368304,477.846154 371.026786,477.846154 L370.645089,477.846154 L359.354911,477.846154 L358.973214,477.846154 C358.631696,477.846154 358.370536,478.096154 358.370536,478.423077 C358.370536,478.75 358.631696,479 358.973214,479 L359.354911,479 L359.354911,479.923077 L358.611607,479.923077 C357.828125,479.923077 357.205357,479.326923 357.205357,478.576923 L357.205357,475.269231 C357.205357,474.519231 357.828125,473.923077 358.611607,473.923077 L359.354911,473.923077 L370.645089,473.923077 L371.388393,473.923077 C372.171875,473.923077 372.794643,474.519231 372.794643,475.269231 L372.794643,478.576923 Z" id="Shape"></path>
        </g>
    </g>
</svg>