<?xml version="1.0" encoding="UTF-8" standalone="no"?>
<svg width="6px" height="10px" viewBox="0 0 6 10" version="1.1" xmlns="http://www.w3.org/2000/svg" xmlns:xlink="http://www.w3.org/1999/xlink">
    <!-- Generator: Sketch 39.1 (31720) - http://www.bohemiancoding.com/sketch -->
    <title>arrow_know_more_icon_tech</title>
    <desc>Created with Sketch.</desc>
    <defs></defs>
    <g id="Desktop" stroke="none" stroke-width="1"  fill-rule="evenodd">
        <g id="Sole_dskt_main" transform="translate(-389.000000, -2468.000000)" stroke-width="0.539999986">
            <g id="technology" transform="translate(76.000000, 2097.000000)">
                <g id="know_more_btn" transform="translate(200.000000, 352.000000)">
                    <path d="M117.573472,20.0760848 C117.669329,19.9746384 117.830578,19.9746384 117.926435,20.0760848 C117.973249,20.1260155 117.999257,20.1933822 117.999257,20.2647117 C117.999257,20.3352487 117.973249,20.4026154 117.926435,20.4533386 L114.601895,23.9992074 L117.926435,27.5450763 C117.973249,27.5950069 118,27.6623737 118,27.7344957 C118,27.8050327 117.973992,27.8716069 117.927921,27.9215375 C117.881107,27.9722607 117.817945,28 117.750325,28 C117.683448,28 117.621029,27.9722607 117.574215,27.9223301 L114.073565,24.1878344 C114.026751,24.1379037 114,24.070537 114,23.9992074 C114,23.9278779 114.026008,23.8605112 114.073565,23.8113731 L117.573472,20.0760848 Z" id="arrow_know_more_icon_tech" transform="translate(116.000000, 24.000000) scale(-1, 1) translate(-116.000000, -24.000000) "></path>
                </g>
            </g>
        </g>
    </g>
</svg>
