<?xml version="1.0" encoding="UTF-8" standalone="no"?>
<svg width="10px" height="12px" viewBox="0 0 10 12" version="1.1" xmlns="http://www.w3.org/2000/svg" xmlns:xlink="http://www.w3.org/1999/xlink">
    <!-- Generator: Sketch 39.1 (31720) - http://www.bohemiancoding.com/sketch -->
    <title>ruble icon</title>
    <desc>Created with Sketch.</desc>
    <defs></defs>
    <g id="Desktop" stroke="none" stroke-width="1" fill="none" fill-rule="evenodd">
        <g id="Sole_dskt_main" transform="translate(-227.000000, -4369.000000)" fill="#181B1E">
            <g id="online-store" transform="translate(25.000000, 3844.000000)">
                <g id="1-item" transform="translate(0.000000, 140.000000)">
                    <g id="price" transform="translate(114.750000, 371.000000)">
                        <path d="M92.8159652,21.9035044 C95.1231198,21.9035044 97,20.1306847 97,17.9518406 C97,15.7729966 95.1231198,14 92.8159652,14 L89.8188362,14 C89.422452,14 89.1013377,14.3034572 89.1013377,14.6776504 C89.1013377,14.735477 89.1097635,14.7913584 89.1241808,14.8449409 C89.1097635,14.8985234 89.1013377,14.9544048 89.1013377,15.0122314 L89.1013377,20.5480268 L88.7174985,20.5480268 C88.3211143,20.5480268 88,20.851484 88,21.2256771 C88,21.6000472 88.3213015,21.9033275 88.7174985,21.9033275 L89.1013377,21.9033275 L89.1013377,22.7816912 L88.7174985,22.7816912 C88.3211143,22.7816912 88,23.0851484 88,23.4593416 C88,23.8335347 88.3213015,24.136992 88.7174985,24.136992 L89.1013377,24.136992 L89.1013377,25.3223496 C89.1013377,25.6967196 89.4226392,26 89.8188362,26 C90.2152204,26 90.5363347,25.6965428 90.5363347,25.3223496 L90.5363347,24.136992 L92.6534421,24.136992 C93.0498263,24.136992 93.3709406,23.8335347 93.3709406,23.4593416 C93.3709406,23.0851484 93.049639,22.7816912 92.6534421,22.7816912 L90.5363347,22.7816912 L90.5363347,21.9033275 L92.8159652,21.9035044 L92.8159652,21.9035044 Z M90.5363347,15.3554776 L92.8159652,15.3554776 C94.3318493,15.3554776 95.565003,16.520145 95.565003,17.9516638 C95.565003,19.3833594 94.3318493,20.5480268 92.8159652,20.5480268 L90.5363347,20.5480268 L90.5363347,15.3554776 Z" id="ruble-icon"></path>
                    </g>
                </g>
            </g>
        </g>
    </g>
</svg>