<?xml version="1.0" encoding="UTF-8" standalone="no"?>
<svg width="15px" height="14px" viewBox="0 0 15 14" version="1.1" xmlns="http://www.w3.org/2000/svg" xmlns:xlink="http://www.w3.org/1999/xlink">
    <!-- Generator: Sketch 39.1 (31720) - http://www.bohemiancoding.com/sketch -->
    <title>Facebook cion</title>
    <desc>Created with Sketch.</desc>
    <defs></defs>
    <g id="Symbols" stroke="none" stroke-width="1" fill="none" fill-rule="evenodd">
        <g id="sole-footer" transform="translate(-1152.000000, -180.000000)" fill="#FFFFFF">
            <g id="footer">
                <g id="social" transform="translate(1114.000000, 180.000000)">
                    <path d="M52.2391304,12.3452096 C52.2391304,12.7434881 51.9045186,13.0666667 51.4916954,13.0666667 L48.0404345,13.0666667 L48.0404345,8.00650105 L49.800928,8.00650105 L50.0647069,6.03468439 L48.0404345,6.03468439 L48.0404345,4.77542675 C48.0404345,4.20452531 48.2049735,3.81550084 49.053493,3.81550084 L50.1359088,3.81514491 L50.1359088,2.05118762 C49.9484967,2.02734074 49.3062043,1.97359628 48.5587693,1.97359628 C46.9982312,1.97359628 45.9298344,2.89259098 45.9298344,4.58038062 L45.9298344,6.03468439 L44.1649138,6.03468439 L44.1649138,8.00650105 L45.9298344,8.00650105 L45.9298344,13.0666667 L39.4430872,13.0666667 C39.030264,13.0666667 38.6956522,12.7434881 38.6956522,12.3452096 L38.6956522,0.721457108 C38.6956522,0.322822692 39.030264,0 39.4430872,0 L51.4916954,0 C51.9045186,0 52.2391304,0.322822692 52.2391304,0.721457108 L52.2391304,12.3452096" id="Facebook-cion"></path>
                </g>
            </g>
        </g>
    </g>
</svg>