<?xml version="1.0" encoding="UTF-8" standalone="no"?>
<svg width="18px" height="15px" viewBox="0 0 18 15" version="1.1" xmlns="http://www.w3.org/2000/svg" xmlns:xlink="http://www.w3.org/1999/xlink">
    <!-- Generator: Sketch 39.1 (31720) - http://www.bohemiancoding.com/sketch -->
    <title>Shape</title>
    <desc>Created with Sketch.</desc>
    <defs></defs>
    <g id="Desktop" stroke="none" stroke-width="1" fill="none" fill-rule="evenodd">
        <g id="Item" transform="translate(-978.000000, -630.000000)" fill="#FBFCFD">
            <g id="Group-20" transform="translate(969.000000, 620.000000)">
                <path d="M25.2707311,13.6978535 L20.3760626,13.6978535 L20.3760626,11.3687094 C20.3760626,10.6141107 19.7621557,10 19.007362,10 L10.3687006,10 C9.6139069,10 9,10.6139108 9,11.3687094 L9,20.2913997 C9,20.6377237 9.20683387,20.9472771 9.52677689,21.0797715 C9.63309149,21.1237365 9.74400241,21.1451194 9.85411396,21.1451194 C10.075736,21.1451194 10.2929615,21.0583885 10.45663,20.8947189 L12.4232504,18.928086 L15.2631693,18.928086 L15.2631693,21.2572301 C15.2631693,22.0120287 15.8770762,22.6259395 16.63187,22.6259395 L23.2159815,22.6259395 L25.1826019,24.5925725 C25.3462705,24.756242 25.563496,24.8427731 25.785118,24.8427731 C25.8952295,24.8427731 26.0063403,24.8213901 26.1126549,24.7774252 C26.4325979,24.6449307 26.6394318,24.3355772 26.6394318,23.9890533 L26.6394318,15.0665629 C26.6394318,14.3117643 26.0255249,13.6978535 25.2707311,13.6978535 Z M15.2633692,15.0665629 L15.2633692,17.7312396 L12.2809647,17.7312396 C12.0531477,17.7312396 11.8389197,17.8199689 11.6776493,17.9810406 L10.1968387,19.4618607 L10.1968387,11.3687094 C10.1968387,11.2739849 10.2739767,11.1970462 10.3687006,11.1970462 L19.007362,11.1970462 C19.1020859,11.1970462 19.1792239,11.2741847 19.1792239,11.3687094 L19.1792239,13.6978535 L16.6320698,13.6978535 C15.8772761,13.6978535 15.2633692,14.3117643 15.2633692,15.0665629 Z M19.1792239,14.8946998 L19.1792239,17.5593766 C19.1792239,17.6541011 19.1020859,17.7312396 19.007362,17.7312396 L16.4602079,17.7312396 L16.4602079,15.0665629 C16.4602079,14.9718384 16.5373459,14.8946998 16.6320698,14.8946998 L19.1792239,14.8946998 Z M25.4425931,23.1597142 L23.9617825,21.6788941 C23.800512,21.5178225 23.5862841,21.4290932 23.3584671,21.4290932 L16.6320698,21.4290932 C16.5373459,21.4290932 16.4602079,21.3519546 16.4602079,21.2572301 L16.4602079,18.928086 L19.0075618,18.928086 C19.7623555,18.928086 20.3762624,18.3141752 20.3762624,17.5593766 L20.3762624,14.8946998 L25.2707311,14.8946998 C25.3654551,14.8946998 25.4425931,14.9718384 25.4425931,15.0665629 L25.4425931,23.1597142 L25.4425931,23.1597142 Z" id="Shape"></path>
            </g>
        </g>
    </g>
</svg>