<?xml version="1.0" encoding="UTF-8" standalone="no"?>
<svg width="17px" height="17px" viewBox="0 0 17 17" version="1.1" xmlns="http://www.w3.org/2000/svg" xmlns:xlink="http://www.w3.org/1999/xlink">
    <!-- Generator: Sketch 39.1 (31720) - http://www.bohemiancoding.com/sketch -->
    <title>Group</title>
    <desc>Created with Sketch.</desc>
    <defs></defs>
    <g id="Desktop" stroke="none" stroke-width="1" fill="none" fill-rule="evenodd">
        <g id="place-order-service" transform="translate(-730.000000, -989.000000)" fill="#F53B49">
            <g id="noun_545346_cc" transform="translate(730.000000, 989.000000)">
                <g id="Group">
                    <path d="M12.4059524,0.0202380952 L11.2321429,0.0202380952 L11.2321429,2.1047619 L5.76785714,2.1047619 L5.76785714,0.0202380952 L4.59404762,0.0202380952 L4.59404762,2.1047619 L0.121428571,2.1047619 L0.121428571,16.9190476 L16.8785714,16.9190476 L16.8785714,2.1047619 L12.4059524,2.1047619 L12.4059524,0.0202380952 Z M15.7047619,3.27857143 L15.7047619,15.7452381 L1.2952381,15.7452381 L1.2952381,3.27857143 L4.59404762,3.27857143 L4.59404762,4.6952381 L5.76785714,4.6952381 L5.76785714,3.27857143 L11.2119048,3.27857143 L11.2119048,4.6952381 L12.3857143,4.6952381 L12.3857143,3.27857143 L15.7047619,3.27857143 Z" id="Shape"></path>
                    <rect id="Rectangle-path" x="2.89404762" y="7.36666667" width="11.2321429" height="1.17380952"></rect>
                    <rect id="Rectangle-path" x="2.89404762" y="12.8309524" width="11.2321429" height="1.17380952"></rect>
                    <rect id="Rectangle-path" x="2.89404762" y="10.0988095" width="11.2321429" height="1.17380952"></rect>
                </g>
            </g>
        </g>
    </g>
</svg>