<?xml version="1.0" encoding="UTF-8" standalone="no"?>
<svg width="20px" height="13px" viewBox="0 0 20 13" version="1.1" xmlns="http://www.w3.org/2000/svg" xmlns:xlink="http://www.w3.org/1999/xlink">
    <!-- Generator: Sketch 39.1 (31720) - http://www.bohemiancoding.com/sketch -->
    <title>Shape</title>
    <desc>Created with Sketch.</desc>
    <defs></defs>
    <g id="Desktop" stroke="none" stroke-width="1" fill="none" fill-rule="evenodd">
        <g id="Comparison" transform="translate(-272.000000, -2058.000000)" fill="#F53B49">
            <path d="M272,2058 L272,2071 L286.047619,2071 L292,2064.5 L286.047619,2058 L272,2058 Z M282.963447,2061.31134 C283.041412,2061.50367 282.992131,2061.72418 282.839711,2061.86501 L280.198561,2064.50635 L282.839711,2067.1399 C282.970496,2067.26429 283.023866,2067.44964 282.979257,2067.62454 C282.934648,2067.79944 282.799022,2067.93658 282.62464,2067.98312 C282.450257,2068.02967 282.264338,2067.97834 282.138521,2067.84893 L279.497371,2065.20759 L276.856221,2067.84893 C276.730404,2067.97834 276.544484,2068.02967 276.370102,2067.98312 C276.195719,2067.93658 276.060094,2067.79944 276.015484,2067.62454 C275.970875,2067.44964 276.024245,2067.26429 276.155031,2067.1399 L278.796181,2064.50635 L276.155031,2061.86501 C276.013985,2061.73034 275.964376,2061.5258 276.02805,2061.34147 C276.091725,2061.15713 276.256997,2061.02683 276.451089,2061.00794 C276.601592,2060.99331 276.750605,2061.04776 276.856221,2061.15598 L279.497371,2063.79732 L282.138521,2061.15598 C282.215451,2061.07592 282.316899,2061.02382 282.426788,2061.00794 C282.447379,2061.00404 282.468197,2061.00143 282.489116,2061.00015 C282.69657,2060.99508 282.885483,2061.11902 282.963447,2061.31134 Z" id="Shape"></path>
        </g>
    </g>
</svg>