<?xml version="1.0" encoding="UTF-8" standalone="no"?>
<svg width="67px" height="67px" viewBox="0 0 67 67" version="1.1" xmlns="http://www.w3.org/2000/svg" xmlns:xlink="http://www.w3.org/1999/xlink">
    <!-- Generator: Sketch 39.1 (31720) - http://www.bohemiancoding.com/sketch -->
    <title>Group 6</title>
    <desc>Created with Sketch.</desc>
    <defs></defs>
    <g id="Desktop" stroke="none" stroke-width="1"  fill-rule="evenodd">
        <g id="Sole_dskt_main" transform="translate(-747.000000, -359.000000)">
            <g id="play_button" transform="translate(747.000000, 359.000000)">
                <g id="Group-6">
                    <path d="M33.5,0.174944444 C15.1196667,0.174944444 0.1675,15.1271111 0.1675,33.5 C0.1675,51.8728889 15.1233889,66.8250556 33.5,66.8250556 C51.8766111,66.8250556 66.8287778,51.8766111 66.8287778,33.5037222 C66.8287778,15.1308333 51.8803333,0.174944444 33.5,0.174944444 Z M64.3386111,33.5 C64.3386111,50.4993889 50.5068333,64.3348889 33.5,64.3348889 C16.4931667,64.3348889 2.66138889,50.5031111 2.66138889,33.5 C2.66138889,16.4968889 16.4968889,2.66138889 33.5,2.66138889 C50.5031111,2.66138889 64.3386111,16.4968889 64.3386111,33.5 Z" id="Shape"></path>
                    <path d="M48.9025556,32.1562778 L26.1113889,20.7625556 C25.5121111,20.4722222 24.7862778,20.5764444 24.3135556,21.0342778 C24.0232222,21.3320556 23.8594444,21.7303333 23.8594444,22.1621111 L23.8594444,44.8453333 C23.8594444,45.7237778 24.5257222,46.4161111 25.3743889,46.4161111 C25.6275,46.4161111 25.8768889,46.3565556 26.1151111,46.2411667 L48.8988333,34.84 C49.4497222,34.5682778 49.7772778,34.0657778 49.7772778,33.5 C49.7772778,32.9342222 49.4534444,32.428 48.9025556,32.1562778 Z M46.0141111,33.5 L26.3533333,43.3303889 L26.3533333,23.6733333 L46.0141111,33.5 Z" id="Shape"></path>
                </g>
            </g>
        </g>
    </g>
</svg>
