<?xml version="1.0" encoding="UTF-8" standalone="no"?>
<svg width="19px" height="13px" viewBox="0 0 19 13" version="1.1" xmlns="http://www.w3.org/2000/svg" xmlns:xlink="http://www.w3.org/1999/xlink">
    <!-- Generator: Sketch 39.1 (31720) - http://www.bohemiancoding.com/sketch -->
    <title>vk icon</title>
    <desc>Created with Sketch.</desc>
    <defs></defs>
    <g id="Symbols" stroke="none" stroke-width="1" fill="none" fill-rule="evenodd">
        <g id="sole-footer" transform="translate(-1114.000000, -180.000000)" fill="#FFFFFF">
            <g id="footer">
                <g id="social" transform="translate(1114.000000, 180.000000)">
                    <path d="M10.0797168,12.1283867 C10.5461009,12.1283867 10.73679,11.8035909 10.7314292,11.3963963 C10.7076888,9.86281636 11.2782244,9.03722717 12.3082516,10.1132131 C13.4477911,11.3035975 13.6836635,12.1283867 15.0674995,12.1283867 L17.518122,12.1283867 C18.1369042,12.1283867 18.3804348,11.9203894 18.3804348,11.5939937 C18.3804348,10.9036027 17.2922052,9.68521869 16.3701585,8.7908304 C15.0789867,7.5388468 15.018487,7.50924719 16.130457,6.00206693 C17.509698,4.13089145 19.3139688,1.73332285 17.7180009,1.73332285 L14.6692733,1.73332285 C14.0780606,1.73332285 14.0351747,2.0813183 13.8245743,2.5997115 C13.0625839,4.47728691 11.6144191,6.90925505 11.0645607,6.53725992 C10.4894302,6.14926501 10.7528722,4.61248514 10.7965239,2.32851506 C10.8080112,1.72532296 10.8049479,1.31172838 9.92272378,1.09733119 C9.44102329,0.981332705 8.97234173,0.933333333 8.53735623,0.933333333 C6.79664842,0.933333333 5.59584338,1.69572335 6.27818859,1.82852161 C7.48129109,2.06291854 7.36565234,4.78208292 7.08536239,5.95646753 C6.59676952,8.00124075 4.76033426,4.33728874 3.99528054,2.51251265 C3.81071803,2.07411839 3.75404739,1.73332285 3.09544258,1.73332285 L0.602699978,1.73332285 C0.225916764,1.73332285 0,1.86132118 0,2.14611745 C0,2.62771114 2.26682584,7.52204702 4.43103186,9.96201506 C6.54163051,12.3419839 8.62772294,12.1283867 10.0797168,12.1283867 L10.0797168,12.1283867 Z" id="vk-icon"></path>
                </g>
            </g>
        </g>
    </g>
</svg>