<?xml version="1.0" encoding="UTF-8" standalone="no"?>
<svg width="520px" height="162px" viewBox="0 0 520 162" version="1.1" xmlns="http://www.w3.org/2000/svg" xmlns:xlink="http://www.w3.org/1999/xlink">
    <!-- Generator: Sketch 39.1 (31720) - http://www.bohemiancoding.com/sketch -->
    <title>arts_downl_cat</title>
    <desc>Created with Sketch.</desc>
    <defs></defs>
    <g id="Desktop" stroke="none" stroke-width="1" fill="none" fill-rule="evenodd" opacity="0.200000003">
        <g id="Sole_dskt_main" transform="translate(-1040.000000, -1823.000000)" stroke="#FFFFFF">
            <g id="products" transform="translate(0.000000, 845.000000)">
                <g id="donwload_catalog" transform="translate(1040.000000, 620.000000)">
                    <g id="arts_downl_cat" transform="translate(-3.000000, 356.000000)">
                        <path d="M0.49609375,0.8671875 L112.935815,81.6271077 L168.773526,150.170255 L210.066195,187.960876 L207.1225,103.656687 C207.103169,103.103052 207.430262,102.94795 207.848935,103.306703 L292.159422,175.550707 L320.40486,177.265046 L316.8315,121.769861 C316.795773,121.215014 316.386539,121.000662 315.908139,121.296859 L227.104007,176.279032 L367.327291,175.68134 L375.229715,135.89006 L433.171875,75.3334428 L545.419935,87.9458256 L453.285834,184.183246 L479.951145,180.740251 L505.377247,130.521879 L515.162633,170.75427" id="Path-3"></path>
                        <path d="M542.5,151.132812 L434.143479,75.8576659 C433.692821,75.5445943 433.425393,75.7293202 433.544826,76.2642801 L455.286493,173.64847 L354.569959,175.871027 L316.909225,121.609885 C316.594365,121.156238 316.775528,120.899727 317.303835,121.034394 L374.726866,135.671741" id="Path-4"></path>
                        <path d="M433.35314,75.519914 L364.167037,187.703189 L166.232438,176.543878 L169.109951,150.164886 L207.090161,103.516965 C207.438101,103.089618 207.276511,102.641661 206.751248,102.52146 L112.942973,81.0544683 L5.15792182,89.8570096 L7.46279541,92.9671574" id="Path-5"></path>
                        <polyline id="Path-6" points="9.02159592 92.7970611 169.501019 150.216974 72.4431366 180.805152 0.145421231 90.8517603 35.1292687 183.030608"></polyline>
                    </g>
                </g>
            </g>
        </g>
    </g>
</svg>