<?xml version="1.0" encoding="UTF-8" standalone="no"?>
<svg width="63px" height="63px" viewBox="0 0 63 63" version="1.1" xmlns="http://www.w3.org/2000/svg" xmlns:xlink="http://www.w3.org/1999/xlink">
    <!-- Generator: Sketch 39.1 (31720) - http://www.bohemiancoding.com/sketch -->
    <title>Group</title>
    <desc>Created with Sketch.</desc>
    <defs></defs>
    <g id="Desktop" stroke="none" stroke-width="1" fill="none" fill-rule="evenodd">
        <g id="News" transform="translate(-750.000000, -2066.000000)" fill="#DDE2EB">
            <g id="Group" transform="translate(750.000000, 2066.000000)">
                <path d="M16.6545918,20.7388129 C14.3910827,20.7388129 12.5497266,18.896873 12.5497266,16.6339869 C12.5497266,14.3704994 14.3910827,12.5291608 16.6545918,12.5291608 C18.9181009,12.5291608 20.759457,14.3704994 20.759457,16.6339869 C20.759457,18.896873 18.9181009,20.7388129 16.6545918,20.7388129 L16.6545918,20.7388129 Z M24.3676012,16.6339869 C24.3676012,12.3812283 20.907391,8.92105112 16.6545918,8.92105112 C12.4017926,8.92105112 8.94158244,12.3812283 8.94158244,16.6339869 C8.94158244,20.8867454 12.4017926,24.3469226 16.6545918,24.3469226 C20.907391,24.3469226 24.3676012,20.8867454 24.3676012,16.6339869 L24.3676012,16.6339869 Z M59.3918559,57.0971326 C59.3918559,58.3623764 58.3629335,59.3918903 57.0976776,59.3918903 L14.7807623,59.3918903 C13.5155064,59.3918903 12.4859827,58.3623764 12.4859827,57.0971326 L12.4859827,54.1216448 L48.2192377,54.1216448 C51.4791959,54.1216448 54.1221615,51.4793059 54.1221615,48.2193788 L54.1221615,12.4864648 L57.0976776,12.4864648 C58.3629335,12.4864648 59.3918559,13.5159788 59.3918559,14.7812226 L59.3918559,57.0971326 Z M5.90292374,50.5135352 C4.84994699,50.5135352 3.97016123,49.7973254 3.70075314,48.8297506 L21.7769537,34.0713795 C22.6411042,33.3768183 23.7229461,33.0647169 24.8246328,33.1958115 C25.9257181,33.3257035 26.9065319,33.8801497 27.5854643,34.7575216 L29.0593912,36.6607995 C30.3607285,38.3415772 32.3217548,39.4191993 34.4385327,39.617044 C36.5529051,39.8100779 38.6817101,39.1173208 40.2807194,37.6969283 L50.5140173,28.4914379 L50.5140173,48.2193788 C50.5140173,49.4846226 49.4844936,50.5135352 48.2192377,50.5135352 L5.90292374,50.5135352 Z M3.60814412,5.90286739 C3.60814412,4.63762359 4.63766786,3.60810968 5.90292374,3.60810968 L48.2192377,3.60810968 C49.4844936,3.60810968 50.5140173,4.63762359 50.5140173,5.90286739 L50.5140173,23.637929 L37.8758913,35.0070825 C37.0183557,35.768995 35.9196758,36.1328128 34.7728874,36.0239682 C33.6309098,35.9175289 32.6152172,35.3588733 31.9128318,34.452035 L30.4383036,32.5481558 C29.1616219,30.8992497 27.3184617,29.856506 25.2479883,29.6123573 C23.1769136,29.3688099 21.1419203,29.9527223 19.505627,31.2672769 L3.60814412,44.2468501 L3.60814412,5.90286739 Z M57.0976776,8.87835517 L54.1221615,8.87835517 L54.1221615,5.90286739 C54.1221615,2.64294032 51.4791959,0 48.2192377,0 L5.90292374,0 C2.64236419,0 0,2.64294032 0,5.90286739 L0,48.2193788 C0,51.4793059 2.64236419,54.1216448 5.90292374,54.1216448 L8.87783855,54.1216448 L8.87783855,57.0971326 C8.87783855,60.3570597 11.5208041,63 14.7807623,63 L57.0976776,63 C60.3576358,63 63,60.3570597 63,57.0971326 L63,14.7812226 C63,11.5212955 60.3576358,8.87835517 57.0976776,8.87835517 L57.0976776,8.87835517 Z" id="Shape"></path>
            </g>
        </g>
    </g>
</svg>