<?xml version="1.0" encoding="UTF-8" standalone="no"?>
<svg width="11px" height="20px" viewBox="0 0 11 20" version="1.1" xmlns="http://www.w3.org/2000/svg" xmlns:xlink="http://www.w3.org/1999/xlink">
    <!-- Generator: Sketch 39.1 (31720) - http://www.bohemiancoding.com/sketch -->
    <title>left_arrow_tech</title>
    <desc>Created with Sketch.</desc>
    <defs></defs>
    <g id="Desktop" stroke="none" stroke-width="1" fill-rule="evenodd">
        <g id="Sole_dskt_main" transform="translate(-76.000000, -2287.000000)">
            <g id="technology" transform="translate(76.000000, 2097.000000)">
                <path d="M9.82704811,190.190212 C10.0906558,189.936596 10.5340888,189.936596 10.7976965,190.190212 C10.9264351,190.315039 10.9979565,190.483456 10.9979565,190.661779 C10.9979565,190.838122 10.9264351,191.006539 10.7976965,191.133347 L1.65521085,199.998019 L10.7976965,208.862691 C10.9264351,208.987517 11,209.155934 11,209.336239 C11,209.512582 10.9284785,209.679017 10.8017834,209.803844 C10.6730448,209.930652 10.4993498,210 10.313394,210 C10.1294817,210 9.95783021,209.930652 9.82909158,209.805825 L0.202303548,200.469586 C0.0735649266,200.344759 0,200.176342 0,199.998019 C0,199.819695 0.0715214564,199.651278 0.202303548,199.528433 L9.82704811,190.190212 Z" id="left_arrow_tech"></path>
            </g>
        </g>
    </g>
</svg>
